<?xml version="1.0" encoding="UTF-8"?>
<svg fill="#FFFFFF" width="1200pt" height="1200pt" version="1.1" viewBox="0 0 1200 1200" xmlns="http://www.w3.org/2000/svg">
 <path d="m287.34 230.53h738.98v-56.859h-852.66v56.859z"/>
 <path d="m116.86 230.53h56.859v56.859h-56.859z"/>
 <path d="m116.86 287.34h-56.859v113.72h56.859z"/>
 <path d="m116.86 401.06h56.859v56.859h-56.859z"/>
 <path d="m287.34 742.13h738.98v-56.859h-852.66v56.859z"/>
 <path d="m116.86 742.13h56.859v56.859h-56.859z"/>
 <path d="m116.86 798.94h-56.859v113.72h56.859z"/>
 <path d="m912.66 457.87h-738.98v56.859h852.66v-56.859z"/>
 <path d="m1026.3 230.53h56.859v56.859h-56.859z"/>
 <path d="m1026.3 401.06h56.859v56.859h-56.859z"/>
 <path d="m1026.3 742.13h56.859v56.859h-56.859z"/>
 <path d="m116.86 912.66h56.859v56.859h-56.859z"/>
 <path d="m1026.3 912.66h56.859v56.859h-56.859z"/>
 <path d="m912.66 969.47h-738.98v56.859h852.66v-56.859z"/>
 <path d="m1083.1 344.21v56.859h56.859v-113.72h-56.859z"/>
 <path d="m1083.1 855.79v56.859h56.859v-113.72h-56.859z"/>
</svg>
